<?xml version="1.0" encoding="UTF-8"?>
<svg width="400pt" height="215.5pt" version="1.1" viewBox="0 0 400 215.5" xmlns="http://www.w3.org/2000/svg">
 <defs>
  <clipPath>
   <rect width="596" height="85"/>
  </clipPath>
  <clipPath id="clip-47">
   <path d="m157 595h6.0352v7h-6.0352z"/>
  </clipPath>
  <clipPath id="clip-48">
   <path d="m52 606h6v5.9219h-6z"/>
  </clipPath>
  <clipPath id="clip-49">
   <path d="m59 606h2v5.9219h-2z"/>
  </clipPath>
  <clipPath id="clip-50">
   <path d="m65 606h6v5.9219h-6z"/>
  </clipPath>
  <clipPath id="clip-51">
   <path d="m71 606h6v5.9219h-6z"/>
  </clipPath>
  <clipPath id="clip-52">
   <path d="m78 606h4v5.9219h-4z"/>
  </clipPath>
  <clipPath id="clip-53">
   <path d="m83 606h4v5.9219h-4z"/>
  </clipPath>
  <clipPath id="clip-54">
   <path d="m88 606h6v5.9219h-6z"/>
  </clipPath>
  <clipPath id="clip-55">
   <path d="m95 606h1v5.9219h-1z"/>
  </clipPath>
  <clipPath id="clip-56">
   <path d="m98 606h6v5.9219h-6z"/>
  </clipPath>
  <clipPath id="clip-57">
   <path d="m105 606h6v5.9219h-6z"/>
  </clipPath>
  <clipPath id="clip-58">
   <path d="m116 606h4v5.9219h-4z"/>
  </clipPath>
  <clipPath id="clip-59">
   <path d="m121 606h4v5.9219h-4z"/>
  </clipPath>
  <clipPath id="clip-60">
   <path d="m126 606h6v5.9219h-6z"/>
  </clipPath>
  <clipPath id="clip-61">
   <path d="m134 606h6v5.9219h-6z"/>
  </clipPath>
  <clipPath id="clip-62">
   <path d="m141 606h5v5.9219h-5z"/>
  </clipPath>
  <clipPath id="clip-63">
   <path d="m147 606h5v5.9219h-5z"/>
  </clipPath>
  <clipPath id="clip-64">
   <path d="m152 606h7v5.9219h-7z"/>
  </clipPath>
  <clipPath id="clip-65">
   <path d="m81 549.8h24v41.199h-24z"/>
  </clipPath>
  <clipPath id="clip-66">
   <path d="m84 549.8h23v40.199h-23z"/>
  </clipPath>
  <clipPath id="clip-67">
   <path d="m88 549.8h22v39.199h-22z"/>
  </clipPath>
  <clipPath id="clip-68">
   <path d="m90 549.8h23v40.199h-23z"/>
  </clipPath>
  <clipPath id="clip-69">
   <path d="m92 549.8h24v41.199h-24z"/>
  </clipPath>
  <clipPath id="clip-70">
   <path d="m96 549.8h22v39.199h-22z"/>
  </clipPath>
 </defs>
 <g transform="scale(3.4691)" fill="#231f20">
  <path d="m0 46.047v5.7305h0.82422v-2.6641h2.2344v-0.74219h-2.2344v-1.5859h2.2344v-0.73828z"/>
  <path d="m8.3945 46.785h-2.4297v1.7305h2.3477v0.73828h-2.3477v1.7812h2.5078v0.74218h-3.3281v-5.7305h3.25z"/>
  <path d="m11.395 51.035h1.3125c1.8633 0 2.293-1.418 2.293-2.125 0-1.1524-0.73047-2.125-2.3359-2.125h-1.2695zm-0.82422-4.9883h2.2266c2.1172 0 3.0508 1.5117 3.0508 2.8633 0 1.4726-1.1523 2.8672-3.0391 2.8672h-2.2383z"/>
  <path d="m21.328 46.785h-2.4297v1.7305h2.3438v0.73828h-2.3438v1.7812h2.5039v0.74218h-3.3281v-5.7305h3.2539z"/>
  <path d="m24.328 48.551h0.52734c0.88281 0 1.1367-0.45703 1.125-0.93359-0.0078-0.53906-0.32812-0.86719-1.125-0.86719h-0.52734zm0.62109-2.5039c1.1602 0 1.8828 0.61328 1.8828 1.6055 0 0.66016-0.34766 1.1562-0.96094 1.4024 0.52344 0.34375 0.83984 0.87109 1.2773 1.5859 0.24609 0.39453 0.38672 0.58984 0.78125 1.1367h-0.98047l-0.75781-1.1797c-0.75781-1.1758-1.1016-1.3086-1.5195-1.3086h-0.34375v2.4883h-0.82422v-5.7305z"/>
  <path d="m31.031 49.348h1.7812l-0.92188-2.0742zm3.7227 2.4297h-0.83984l-0.76562-1.6914h-2.4375l-0.72266 1.6914h-0.83984l2.4648-5.7656h0.57812z"/>
  <path d="m36.336 46.785v-0.73828h4.9375l-3.6445 4.9883h3.6445v0.74218h-5.168l3.6484-4.9922z"/>
  <path d="m44.074 51.777h-0.82422v-5.7305h0.82422z"/>
  <path d="m49.375 51.094c1.2852 0 2.2344-0.92969 2.2344-2.1836 0-1.2617-0.94922-2.1836-2.2344-2.1836-1.2773 0-2.2266 0.92188-2.2266 2.1836 0 1.2539 0.94922 2.1836 2.2266 2.1836m0-5.125c1.8906 0 3.082 1.3438 3.082 2.9414 0 1.5469-1.1602 2.9414-3.0977 2.9414-1.875 0-3.0586-1.3867-3.0586-2.9414 0-1.5859 1.2188-2.9414 3.0742-2.9414"/>
  <path d="m59.988 51.777h-0.70703l-3.832-4.4141v4.4141h-0.77344v-5.7305h0.65625l3.8828 4.4336v-4.4336h0.77344z"/>
  <path d="m65.719 46.785h-2.4297v1.7305h2.3438v0.73828h-2.3438v1.7812h2.5039v0.74218h-3.3281v-5.7305h3.2539z"/>
  <path d="m72.273 51.777h-0.82422v-5.7305h0.82422z"/>
  <path d="m79.063 46.785h-1.9844v4.9922h-0.82421v-4.9922h-1.9805v-0.73828h4.7891z"/>
  <path d="m81.508 49.348h1.7812l-0.92578-2.0742zm3.7227 2.4297h-0.83985l-0.76562-1.6914h-2.4375l-0.72266 1.6914h-0.83984l2.4648-5.7656h0.57813z"/>
  <path d="m87.895 51.035h2.5859v0.74218h-3.4102v-5.7305h0.82422z"/>
  <path d="m93.246 51.777h-0.82422v-5.7305h0.82422z"/>
  <path d="m96.977 49.348h1.7812l-0.92187-2.0742zm3.7227 2.4297h-0.83985l-0.76562-1.6914h-2.4375l-0.72266 1.6914h-0.83984l2.4648-5.7656h0.57813z"/>
  <path d="m107.85 51.777h-0.70703l-3.832-4.4141v4.4141h-0.77344v-5.7305h0.65625l3.8828 4.4336v-4.4336h0.77344z"/>
 </g>
 <g transform="matrix(3.4691 0 0 3.4691 -165.58 -1907.3)" clip-path="url(#clip-47)">
  <path d="m159.31 599.15h1.7812l-0.92578-2.0742zm3.7227 2.4297h-0.83985l-0.76562-1.6914h-2.4375l-0.72266 1.6914h-0.83984l2.4609-5.7656h0.57813z" fill="#231f20"/>
 </g>
 <g transform="matrix(3.4691 0 0 3.4691 -165.58 -1907.3)" clip-path="url(#clip-48)">
  <path d="m53.078 611.11h1.3125c1.8633 0 2.293-1.4219 2.293-2.1289 0-1.1484-0.73047-2.125-2.3359-2.125h-1.2695zm-0.82031-4.9922h2.2227c2.1172 0 3.0508 1.5117 3.0508 2.8633 0 1.4726-1.1484 2.8672-3.0391 2.8672h-2.2344z" fill="#231f20"/>
 </g>
 <g transform="matrix(3.4691 0 0 3.4691 -165.58 -1907.3)" clip-path="url(#clip-49)">
  <path d="m60.59 611.85h-0.82031v-5.7305h0.82031z" fill="#231f20"/>
 </g>
 <g transform="matrix(3.4691 0 0 3.4691 -165.58 -1907.3)" clip-path="url(#clip-50)">
  <path d="m67.055 609.42h1.7812l-0.92578-2.0742zm3.7227 2.4297h-0.83984l-0.76562-1.6914h-2.4375l-0.72266 1.6914h-0.83984l2.4609-5.7656h0.58203z" fill="#231f20"/>
 </g>
 <g transform="matrix(3.4691 0 0 3.4691 -165.58 -1907.3)" clip-path="url(#clip-51)">
  <path d="m76.09 606.86h-1.9844v4.9922h-0.82422v-4.9922h-1.9805v-0.73828h4.7891z" fill="#231f20"/>
 </g>
 <g transform="matrix(3.4691 0 0 3.4691 -165.58 -1907.3)" clip-path="url(#clip-52)">
  <path d="m78.895 611.11h2.5859v0.73829h-3.4102v-5.7305h0.82422z" fill="#231f20"/>
 </g>
 <g transform="matrix(3.4691 0 0 3.4691 -165.58 -1907.3)" clip-path="url(#clip-53)">
  <path d="m86.668 606.86h-2.4297v1.7305h2.3438v0.73828h-2.3438v1.7852h2.5039v0.73829h-3.3281v-5.7305h3.2539z" fill="#231f20"/>
 </g>
 <g transform="matrix(3.4691 0 0 3.4691 -165.58 -1907.3)" clip-path="url(#clip-54)">
  <path d="m93.129 606.86h-1.9844v4.9922h-0.82031v-4.9922h-1.9844v-0.73828h4.7891z" fill="#231f20"/>
 </g>
 <g transform="matrix(3.4691 0 0 3.4691 -165.58 -1907.3)" clip-path="url(#clip-55)">
  <path d="m95.953 611.85h-0.82422v-5.7305h0.82422z" fill="#231f20"/>
 </g>
 <g transform="matrix(3.4691 0 0 3.4691 -165.58 -1907.3)" clip-path="url(#clip-56)">
  <path d="m103.32 607.39c-0.70312-0.41406-1.3086-0.59766-1.9726-0.59766-1.3125 0-2.2852 0.9336-2.2852 2.1914 0 1.2891 0.94141 2.1758 2.3164 2.1758 0.64843 0 1.3555-0.22656 2-0.64453v0.89844c-0.5625 0.29297-1.1758 0.5039-2.0742 0.5039-2.1484 0-3.0898-1.6523-3.0898-2.8555 0-1.75 1.3164-3.0274 3.1406-3.0274 0.58984 0 1.1836 0.14453 1.9648 0.47266z" fill="#231f20"/>
 </g>
 <g transform="matrix(3.4691 0 0 3.4691 -165.58 -1907.3)" clip-path="url(#clip-57)">
  <path d="m107.08 609.42h1.7812l-0.92579-2.0742zm3.7226 2.4297h-0.83984l-0.76563-1.6914h-2.4375l-0.72265 1.6914h-0.83985l2.4609-5.7656h0.58203z" fill="#231f20"/>
 </g>
 <g transform="matrix(3.4691 0 0 3.4691 -165.58 -1907.3)" clip-path="url(#clip-58)">
  <path d="m117.01 611.11h2.5898v0.73829h-3.4102v-5.7305h0.82031z" fill="#231f20"/>
 </g>
 <g transform="matrix(3.4691 0 0 3.4691 -165.58 -1907.3)" clip-path="url(#clip-59)">
  <path d="m124.78 606.86h-2.4258v1.7305h2.3438v0.73828h-2.3438v1.7852h2.5039v0.73829h-3.3281v-5.7305h3.25z" fill="#231f20"/>
 </g>
 <g transform="matrix(3.4691 0 0 3.4691 -165.58 -1907.3)" clip-path="url(#clip-60)">
  <path d="m131.97 611.45c-0.76172 0.33594-1.3867 0.46875-2.1836 0.46875-1.7539 0-3.0508-1.2266-3.0508-2.9062 0-1.6875 1.3281-2.9766 3.0781-2.9766 0.67187 0 1.1406 0.10938 2.0391 0.48828v0.83203c-0.67188-0.36718-1.3672-0.5625-2.0586-0.5625-1.2422 0-2.207 0.94922-2.207 2.1914 0 1.2812 0.95703 2.1797 2.3164 2.1797 0.44531 0 0.84766-0.10156 1.2461-0.22656v-1.1797h-1.1016v-0.73828h1.9219z" fill="#231f20"/>
 </g>
 <g transform="matrix(3.4691 0 0 3.4691 -165.58 -1907.3)" clip-path="url(#clip-61)">
  <path d="m139.41 611.45c-0.76563 0.33594-1.3867 0.46875-2.1836 0.46875-1.7578 0-3.0508-1.2266-3.0508-2.9062 0-1.6875 1.3281-2.9766 3.0742-2.9766 0.67187 0 1.1445 0.10938 2.043 0.48828v0.83203c-0.67188-0.36718-1.3711-0.5625-2.0586-0.5625-1.2422 0-2.2109 0.94922-2.2109 2.1914 0 1.2812 0.95703 2.1797 2.3203 2.1797 0.44531 0 0.84766-0.10156 1.2422-0.22656v-1.1797h-1.1016v-0.73828h1.9258z" fill="#231f20"/>
 </g>
 <g transform="matrix(3.4691 0 0 3.4691 -165.58 -1907.3)" clip-path="url(#clip-62)">
  <path d="m145.07 606.86h-2.4297v1.7305h2.3438v0.73828h-2.3438v1.7852h2.5039v0.73829h-3.3281v-5.7305h3.2539z" fill="#231f20"/>
 </g>
 <g transform="matrix(3.4691 0 0 3.4691 -165.58 -1907.3)" clip-path="url(#clip-63)">
  <path d="m148.08 608.62h0.52734c0.88282 0 1.1367-0.45312 1.1289-0.93359-8e-3 -0.53516-0.32812-0.86328-1.1289-0.86328h-0.52734zm0.62109-2.5039c1.1602 0 1.8828 0.61328 1.8828 1.6055 0 0.66406-0.34375 1.1602-0.95703 1.4023 0.51953 0.34375 0.83984 0.875 1.2773 1.5859 0.24219 0.39453 0.38672 0.58984 0.78125 1.1367h-0.98438l-0.75781-1.1758c-0.7539-1.1758-1.0976-1.3125-1.5195-1.3125h-0.34375v2.4883h-0.82422v-5.7305z" fill="#231f20"/>
 </g>
 <g transform="matrix(3.4691 0 0 3.4691 -165.58 -1907.3)" clip-path="url(#clip-64)">
  <path d="m154.79 609.42h1.7812l-0.92578-2.0742zm3.7188 2.4297h-0.83984l-0.76172-1.6914h-2.4375l-0.72266 1.6914h-0.83984l2.4609-5.7656h0.57812z" fill="#231f20"/>
 </g>
 <path d="m261.7 85.549h-41.806v27.617h41.806z" fill="#fff" stroke-width="3.4691"/>
 <g transform="matrix(3.4691 0 0 3.4691 -165.58 -1907.3)" clip-path="url(#clip-65)">
  <path d="m81.695 589.71c-0.15625 0.50391 0.27344 0.25 0.27344 0.25 0.07813 0 0.23438-0.37109 0.23438-0.37109l0.19141-0.3125c0.21484-0.23438 0.41016-0.13672 0.41016-0.13672 0.07813 0.42578-0.11719 0.52344-0.11719 0.52344-0.13281 0.58984 0.37109 0.21484 0.37109 0.21484-0.09375 0 1.4414-2.2891 1.4414-2.2891 0.16797-0.53516 0.32812-0.25781 0.32812-0.25781-0.05469 0.3789 0.23828-0.13282 0.23828-0.13282l19.02-37.402h-2.0312z" fill="#1968bb"/>
 </g>
 <g transform="matrix(3.4691 0 0 3.4691 -165.58 -1907.3)" clip-path="url(#clip-66)">
  <path d="m104.79 549.8h2.0391l-19.023 37.391s-0.25 0.50781-0.32422 0.66406l-0.69922 1.4258c-0.3125 0.29687-0.11719-0.21484-0.11719-0.21484 0.11719-0.32813-0.06641-0.39063-0.06641-0.39063-0.29297 0.043-0.11719-0.13281-0.11719-0.13281s0.38281-0.30078 0.26172-0.72266c0 0-0.14062 0.13672-0.39453 0.50781l-0.91797 0.66016-0.03516 0.0625c-0.19922 0.13672-0.35547 0.39453-0.35547 0.39453s-0.56641 0.33203-0.41406-0.17578z" fill="#1968bb"/>
 </g>
 <g transform="matrix(3.4691 0 0 3.4691 -165.58 -1907.3)" clip-path="url(#clip-67)">
  <path d="m90.555 587.18 19.023-37.383h-2.0352l-18.363 36.078-0.92969 1.6797s-0.10547 0.16407 0.14844 0.0274l0.55078-0.76953s0.09766-0.29297 0.36719-0.0391c0 0 0.04297 0.19532 0.41016-0.27343l0.44531-0.57032s0.25391-0.2539 0.12109 0.11719c0 0-0.32812 0.70313-0.38672 0.89844-0.05859 0.19531-0.03906 0.0586-0.03906 0.0586s-0.23438 0.35156 0.01953 0.35156c0 0 0.02344 0.17579 0.11719 0.23438l0.03906 0.60156s0.10938-0.12109 0.17578-0.33203c0.08203-0.24219 0.03906-0.0547 0.03906-0.0547z" fill="#1968bb"/>
 </g>
 <g transform="matrix(3.4691 0 0 3.4691 -165.58 -1907.3)" clip-path="url(#clip-68)">
  <path d="m93.168 587.37c-0.0078 0.17968 0.14062-0.19532 0.14062-0.19532l19.004-37.375-2.0391 4e-3 -18.352 36.07-1.6211 3.1055s-0.36719 0.84375 0.37109 0.35156c0 0 0.65625-0.58984 1.0469-1.1758 0 0 0.3125-0.15625 0.66406-0.3125l0.68359-0.8789s0.12891-0.13672 0.14844 0.17578z" fill="#1968bb"/>
 </g>
 <g transform="matrix(3.4691 0 0 3.4691 -165.58 -1907.3)" clip-path="url(#clip-69)">
  <path d="m96.043 587.16 19.012-37.359h-2.0352l-18.352 36.059c-0.19531 0.50782-1.8984 3.5977-1.8984 3.5977-0.19141 0.29297 0.24609 0.25391 0.24609 0.25391s-0.21094 0.95312 0.60938 0.38672c0 0 0.15234-0.35157 0.40625-0.3125 0 0 0.26562-0.0117 0.54688-0.50782 0 0 0.27344-0.39453 0.48438-0.17968l0.66406-1.3281z" fill="#1968bb"/>
 </g>
 <g transform="matrix(3.4691 0 0 3.4691 -165.58 -1907.3)" clip-path="url(#clip-70)">
  <path d="m98.82 586.71 0.23828-0.12109 18.738-36.785h-2.0352l-18.352 36.051s-0.48828 0.67969-0.03516 0.21094c0 0 0.05859-0.13281 0.27344-0.15234 0 0 0.28125-0.125 0.38672-0.53125 0 0 0.25-0.56641 0.54688-0.50782l-0.85547 1.7578s-0.42578 0.90234-0.46484 0.99609c0 0-0.60156 0.80469-0.61719 1.0391 0 0-0.17578 0.21485 0.03906 0.21485 0 0 0.17188-0.0977 0.23438-0.17579 0 0 0.36328-0.98046 0.75391-1.0781 0 0 0.48438-0.15625 0.46875 0.11719l0.13281 0.0195s0.40625-0.76563 0.54688-1.0547" fill="#1968bb"/>
 </g>
 <path d="m243.79 85.59h21.967l14.066 27.617h-21.858z" fill="#ef293d" stroke-width="3.4691"/>
 <path d="m200.44 85.59h21.953l14.066 27.617h-21.858z" fill="#009270" stroke-width="3.4691"/>
</svg>
